<?xml version="1.0" encoding="UTF-8"?>
<svg id="Layer_2" xmlns="http://www.w3.org/2000/svg" version="1.1" viewBox="0 0 1024 1024">
  <!-- Generator: Adobe Illustrator 30.1.0, SVG Export Plug-In . SVG Version: 2.1.1 Build 136)  -->
  <defs>
    <style>
      .st0, .st1 {
        fill: #231f20;
      }

      .st1 {
        stroke: #fff;
        stroke-miterlimit: 10;
        stroke-width: 8px;
      }

      .st2 {
        display: none;
      }
    </style>
  </defs>
  <g class="st2">
    <path class="st1" d="M343.2,758.3c0,2.2-1.1,4-3.2,5.3-2.1,1.4-4.9,2-8.2,2s-7.7-1.1-9.7-3.3c-1-1.2-1.6-2.3-1.6-3.5s0-.4.2-.5c.1-.1.3-.2.5-.2h7.2c.2,0,.5.1.7.3.2.2.4.4.5.5.3.2,1,.4,2,.4s1.7-.2,2.1-.5c.4-.3.6-.7.6-1.2,0-.9-.8-1.4-2.5-1.4h-4.4c-.2,0-.4,0-.6-.3-.2-.2-.3-.4-.3-.6v-2.6c0-.6.2-1,.7-1.3l4.8-2.4h-9.2c-.2,0-.4,0-.6-.3-.2-.2-.3-.4-.3-.6v-4.6c0-.2,0-.4.3-.6s.4-.3.6-.3h17.9c.2,0,.4,0,.6.3.2.2.3.4.3.6v4.1c0,.5-.2.9-.7,1.3l-4.1,2.6c4.2,1,6.3,3.2,6.3,6.7Z"/>
  </g>
  <g class="st2">
    <path class="st0" d="M343.2,758.3c0,2.2-1.1,4-3.2,5.3-2.1,1.4-4.9,2-8.2,2s-7.7-1.1-9.7-3.3c-1-1.2-1.6-2.3-1.6-3.5s0-.4.2-.5c.1-.1.3-.2.5-.2h7.2c.2,0,.5.1.7.3.2.2.4.4.5.5.3.2,1,.4,2,.4s1.7-.2,2.1-.5c.4-.3.6-.7.6-1.2,0-.9-.8-1.4-2.5-1.4h-4.4c-.2,0-.4,0-.6-.3-.2-.2-.3-.4-.3-.6v-2.6c0-.6.2-1,.7-1.3l4.8-2.4h-9.2c-.2,0-.4,0-.6-.3-.2-.2-.3-.4-.3-.6v-4.6c0-.2,0-.4.3-.6s.4-.3.6-.3h17.9c.2,0,.4,0,.6.3.2.2.3.4.3.6v4.1c0,.5-.2.9-.7,1.3l-4.1,2.6c4.2,1,6.3,3.2,6.3,6.7Z"/>
  </g>
  <g>
    <path class="st0" d="M783.5,775.6h-396v-62.5h331.5c7.3,0,13.6-2.6,18.9-7.9,5.3-5.3,7.9-11.6,7.9-18.9v-129c0-7.3-2.6-13.6-7.9-18.9-5.3-5.3-11.6-7.9-18.9-7.9h-331.5v-62.5h210.4c19.7,0,29.4-23.8,15.3-37.7-34.6-34.2-56.1-81-56.1-132.7s0-.2,0-.2c0-12.5-9.5-22.9-22-22.9H156.2c-7.3,0-13.6,2.7-18.9,7.9-5.3,5.3-7.9,11.6-7.9,18.9v641.2c0,7.3,2.6,13.6,7.9,18.9,5.3,5.3,11.6,7.9,18.9,7.9h627.3c7.3,0,13.6-2.6,18.9-7.9,5.3-5.3,7.9-11.6,7.9-18.9v-140c0-7.3-2.6-13.6-7.9-18.9-5.3-5.3-11.6-7.9-18.9-7.9Z"/>
    <path d="M857.8,208.4c-8.7-9.4-19.2-17.1-31.4-22.9-7.1-3.4-14.7-6.1-22.8-8l78.3-105.5,12.8-17.2h-257v75.7h10.8s93.8-.4,93.8-.4l-69.5,94.3-20.2,27.3,32.2-10.7c7.5-2.5,15.2-4.3,22.8-5.5,7.7-1.1,15.1-1.7,22-1.7,18.3,0,33.4,4.1,45.1,12.3,10.6,7.4,15.7,18.8,15.7,34.7s-1.1,11.9-3.2,17c-2.1,5.1-5.2,9.5-9.3,13.3-4.2,3.9-9.4,6.9-15.6,9.1-6.4,2.3-13.8,3.4-22,3.4-12.6,0-23.1-2-31.4-5.9-8.3-3.9-15.8-9.8-22.2-17.5l-6.7-8.1-8.2,6.5-48.2,38.2-9.3,7.4,8.3,8.5c14.2,14.6,32.1,26.2,53.3,34.5,21,8.2,43.4,12.3,66.6,12.3s41.3-2.6,58.4-7.8c17.5-5.3,32.7-13.1,45.1-23.4,12.6-10.4,22.3-23.1,28.9-37.9,6.5-14.6,9.8-31.3,9.8-49.5s-2.3-27.6-6.7-39.9c-4.5-12.4-11.3-23.5-20-32.9Z"/>
  </g>
</svg>